solid LINK2_BODY
  facet normal 0.000000e+00 -1.000000e+00 0.000000e+00
    outer loop
      vertex 3.000000e+00 0.000000e+00 3.000000e+00
      vertex -3.000000e+00 0.000000e+00 -3.000000e+00
      vertex 3.000000e+00 0.000000e+00 -3.000000e+00
    endloop
  endfacet
  facet normal 0.000000e+00 0.000000e+00 -1.000000e+00
    outer loop
      vertex -3.000000e+00 6.000000e+01 -3.000000e+00
      vertex 3.000000e+00 0.000000e+00 -3.000000e+00
      vertex -3.000000e+00 0.000000e+00 -3.000000e+00
    endloop
  endfacet
  facet normal 1.000000e+00 0.000000e+00 0.000000e+00
    outer loop
      vertex 3.000000e+00 6.000000e+01 -3.000000e+00
      vertex 3.000000e+00 0.000000e+00 3.000000e+00
      vertex 3.000000e+00 0.000000e+00 -3.000000e+00
    endloop
  endfacet
  facet normal 0.000000e+00 0.000000e+00 -1.000000e+00
    outer loop
      vertex -3.000000e+00 6.000000e+01 -3.000000e+00
      vertex 3.000000e+00 6.000000e+01 -3.000000e+00
      vertex 3.000000e+00 0.000000e+00 -3.000000e+00
    endloop
  endfacet
  facet normal 0.000000e+00 -1.000000e+00 0.000000e+00
    outer loop
      vertex 3.000000e+00 0.000000e+00 3.000000e+00
      vertex -3.000000e+00 0.000000e+00 3.000000e+00
      vertex -3.000000e+00 0.000000e+00 -3.000000e+00
    endloop
  endfacet
  facet normal -1.000000e+00 0.000000e+00 0.000000e+00
    outer loop
      vertex -3.000000e+00 6.000000e+01 3.000000e+00
      vertex -3.000000e+00 0.000000e+00 -3.000000e+00
      vertex -3.000000e+00 0.000000e+00 3.000000e+00
    endloop
  endfacet
  facet normal -1.000000e+00 0.000000e+00 0.000000e+00
    outer loop
      vertex -3.000000e+00 6.000000e+01 -3.000000e+00
      vertex -3.000000e+00 0.000000e+00 -3.000000e+00
      vertex -3.000000e+00 6.000000e+01 3.000000e+00
    endloop
  endfacet
  facet normal 0.000000e+00 0.000000e+00 1.000000e+00
    outer loop
      vertex 3.000000e+00 6.000000e+01 3.000000e+00
      vertex -3.000000e+00 0.000000e+00 3.000000e+00
      vertex 3.000000e+00 0.000000e+00 3.000000e+00
    endloop
  endfacet
  facet normal 0.000000e+00 0.000000e+00 1.000000e+00
    outer loop
      vertex -3.000000e+00 6.000000e+01 3.000000e+00
      vertex -3.000000e+00 0.000000e+00 3.000000e+00
      vertex 3.000000e+00 6.000000e+01 3.000000e+00
    endloop
  endfacet
  facet normal 1.000000e+00 0.000000e+00 0.000000e+00
    outer loop
      vertex 3.000000e+00 6.000000e+01 3.000000e+00
      vertex 3.000000e+00 0.000000e+00 3.000000e+00
      vertex 3.000000e+00 6.000000e+01 -3.000000e+00
    endloop
  endfacet
  facet normal 0.000000e+00 1.000000e+00 0.000000e+00
    outer loop
      vertex -3.000000e+00 6.000000e+01 3.000000e+00
      vertex 3.000000e+00 6.000000e+01 3.000000e+00
      vertex 3.000000e+00 6.000000e+01 -3.000000e+00
    endloop
  endfacet
  facet normal 0.000000e+00 1.000000e+00 0.000000e+00
    outer loop
      vertex -3.000000e+00 6.000000e+01 -3.000000e+00
      vertex -3.000000e+00 6.000000e+01 3.000000e+00
      vertex 3.000000e+00 6.000000e+01 -3.000000e+00
    endloop
  endfacet
endsolid LINK2_BODY
